<?xml version="1.0" encoding="utf-8"?>
<!-- Generator: Adobe Illustrator 23.0.3, SVG Export Plug-In . SVG Version: 6.00 Build 0)  -->
<svg version="1.1" id="Layer_1" xmlns="http://www.w3.org/2000/svg" xmlns:xlink="http://www.w3.org/1999/xlink" x="0px" y="0px"
	 viewBox="0 0 600 600" style="enable-background:new 0 0 600 600;" xml:space="preserve">
<style type="text/css">
	.st0{fill:none;stroke:#E6E5F3;stroke-miterlimit:10;}
	.st1{fill:none;stroke:#6E68AF;stroke-miterlimit:10;}
</style>
<g>
	<path class="st0" d="M296,28.67c0,0-20.01,36.46-26.68,46.24s-16.01,27.12-18.23,30.68c-2.22,3.56-20.45,33.35-27.12,44.46
		c-6.67,11.12-10.23,25.79-15.12,28.01s-47.13,12.89-47.13,12.89s-29.79,8-36.9,10.23s-16.45,4.89-27.12,20.9
		s-23.12,28.46-25.34,31.12c-2.22,2.67-11.12,8.45-14.23,15.12s-4.45,30.68-5.34,34.24c-0.89,3.56-1.78,9.78-1.78,9.78
		s0.89-8.45,8.45-8c7.56,0.44,6.22,10.67,6.22,12.89s-4,20.9-4,20.9s-11.12,8.45-14.23,9.78c-3.11,1.33,14.23,0,20.9-4.89
		s6.67-4.89,6.67-4.89"/>
	<path class="st0" d="M51.02,312.34c0,0-4.89,9.78-6.67,15.12c-1.78,5.34-4.45,20.94-4.45,20.94s3.12,2.21,7.56-0.49"/>
	<path class="st0" d="M41.52,339.6c0,0,4.99,1.19,9.5-1.27c4.5-2.46,12.21-7.54,12.21-7.54"/>
	<path class="st0" d="M40.31,346.06c0,0-3.61,5.37-5.64,10.96c-2.02,5.59-2.86,15.35-2.86,15.35S31,390.56,31,392.09
		s0.46,12.12,2.3,16.72c0,0,4.81,6.94,10.33,11.96"/>
	<path class="st0" d="M49.09,380.71c0,0,11.7,4.01,14.13,6.02c2.43,2.01,5.44,11.04,6.44,15.55c1,4.52,5.02,16.56,5.02,21.32
		s-3.26,12.04-9.03,12.79c-2.77,0.36-4.96,0.38-6.49,0.29c-1.66-0.09-2.54-0.29-2.54-0.29s-2.76-0.5-5.6-5.02
		c-2.84-4.52-3.93-10.54-3.93-10.54l-3.01-4.01c0,0-1,4.01,0,7.27s4.56,12.04,11.14,13.56c0,0,1.68-0.01,3.94-0.98"/>
	<path class="st0" d="M63.22,352.22c0,0,4.57,1.73,5.87,5.62"/>
	<path class="st0" d="M95.46,278.74c0,0,5.19,6.48,4.76,13.4"/>
	<path class="st0" d="M123.56,269.66c0,0,5.19-2.59,5.19-8.21c0-5.62,0-5.62,0-5.62"/>
	<path class="st0" d="M139.12,258.85c0,0,3.89-3.46,6.92-10.37c3.03-6.92,3.89-27.67,3.89-27.67"/>
	<path class="st0" d="M293.45,278.74c0,0,4.76-11.67,12.54-19.89c7.78-8.21,9.08-9.08,12.1-15.13s6.05-15.99,24.64-41.5
		s31.56-45.82,52.74-76.08c21.18-30.26,66.14-97.47,66.14-97.47"/>
	<path class="st0" d="M496.19,28.67c0,0-16.43,25.71-41.93,59.86s-37.61,51.01-45.39,60.95c-7.78,9.94-36.31,45.39-44.53,54.47
		c-8.21,9.08-27.23,30.69-34.58,35.88c-7.35,5.19-13.46,7.65-15.16,9.68"/>
	<path class="st0" d="M590.22,127.87c0,0-27.45,24.64-43.44,41.93s-22.48,22.48-28.53,28.1c-6.05,5.62-16.86,17.72-27.67,29.4
		c-10.81,11.67-22.05,22.48-31.56,32.42c-9.51,9.94-13.4,10.81-25.5,25.07s-19.45,28.1-23.34,35.88
		c-3.89,7.78-5.65,16.43-4.77,22.91c0.88,6.48,5.16,18.16-0.22,35.45c-5.38,17.29-12.73,41.07-16.19,56.63
		c-3.46,15.56-3.03,27.67-5.19,35.88s-9.51,11.67-15.56,15.99c-6.05,4.32-12.54,5.19-22.05,15.13
		c-9.51,9.94-22.91,16.86-34.58,23.78c-11.67,6.92-22.48,6.05-26.37,7.78c-3.89,1.73-23.78,6.05-28.96,6.48
		c-5.19,0.43-17.29,3.89-27.23,0l-1.9-0.64"/>
	<path class="st0" d="M197.48,530.33c0,0-3.89-1.3-1.73-6.92c2.16-5.62,6.92-11.24,16.86-14.7s31.12,0.43,33.72,0
		s7.78-1.3,11.67,2.59c3.89,3.89,3.89,7.49,3.89,7.49"/>
	<path class="st0" d="M282.64,497.47c0,0-7.78,2.59-15.56,4.76s-12.57,2.01-15.15,6.19"/>
	<path class="st0" d="M195.1,526.38c0,0-3.34,2.36-3.34,3.95s0.89,1.37,3.34,2.55s7.3,4.13,12.32,5.32s9.75,1.18,15.65,1.77
		c5.91,0.59,5.43-1.77,5.43-1.77s-6.9-4.73-9.86-5.91c-1.06-0.42-10.04-3.25-10.04-3.25s-6.03,2.28-13.5,1.29"/>
	<path class="st0" d="M201.46,536.08c0,0,2.75-0.17,6.35-0.94s5.9-3.49,5.9-3.49v-1.32"/>
	<path class="st0" d="M389.96,396.33c0,0-6.27,21.96-9.41,28.23s-3.76,10.04-6.59,14.74s-5.96,9.41-12.86,15.06
		c-6.9,5.65-9.1,8.16-12.23,12.23c-3.14,4.08-5.96,9.1-9.72,13.18c-3.76,4.08-6.59,6.27-12.55,7.84"/>
	<path class="st0" d="M334.74,410.44c-0.54,0-1.08,0.08-1.62,0.24c-5.68,1.62-11.1,11.29-16.26,17.02
		c-5.65,6.27-15.06,19.14-16.86,31.06s0.92,17.88,0.92,17.88"/>
	<path class="st0" d="M347.61,371.54c0,0-2.2,12.23-5.02,17.88c-2.82,5.65-7.65,16.63-8.84,18.16c0,0-0.68,1.78-0.62,3.09"/>
	<path class="st0" d="M350.54,437.3c0,0,5.15,8.47,7.73,10.68c2.58,2.21,7.03,2.61,7.03,2.61"/>
	<path class="st0" d="M358.27,424.77c0,0,4.84,2.58,7.03,6.26"/>
	<path class="st0" d="M368.96,410.44c0,0,7.2,1.07,8.57,5.12"/>
	<path class="st0" d="M321.8,450.6c0,0-13.26,11.75-16.21,15.81c-2.95,4.05-6.02,9.58-4.67,18.05c1.35,8.47,5.2,13.26,10.28,14.74
		c5.08,1.47,12.81-8.11,12.81-8.11s6.06-9.58,9.11-12.89s7.24-11.05,7.24-11.05s3.27-3.32-5.62-10.32S321.8,450.6,321.8,450.6z"/>
	<path class="st0" d="M324.01,491.09c0,0-1.46,0.16-3.24,0.16c-1.78,0-5.15-3.09-8.13-5.43s-5.65-7.03-6.07-10.86
		c-0.43-3.83,0.53-8.84,0.53-8.84l0.03-1.56"/>
	<path class="st0" d="M358.27,464.56c0,0-3.97-1.18-5.57-2.59"/>
	<path class="st0" d="M314.6,283.03c0,0-0.77-7.58,11.99-14.02"/>
	<path class="st0" d="M361.79,260.67c0,0,13.56-0.76,22.28,3.79c8.72,4.55,12.89,14.28,12.89,14.28"/>
	<path class="st0" d="M248.77,252.33c0,0,8.34-8.72,8.34-21.6s-10.61-32.21-10.61-32.21"/>
	<path class="st0" d="M259.76,254.6c0,0,4.55-2.27,10.23-7.2"/>
	<path class="st0" d="M93.78,463.94c0,0-0.62,6.05-2.48,11.78c-1.86,5.74-5.58,6.98-9.92,8.37s-10.39-2.33-14.57-5.74
		s-4.96-9.46-5.27-11.01c-0.31-1.55-5.27-5.74-6.81-8.84c-1.53-3.1-1.41-9.77-0.48-13.02s0.96-7.82,0.96-7.82"/>
	<path class="st0" d="M60.32,465.47c0,0-0.49,4.52,0.75,9.01c1.24,4.5,2.48,5.89,6.2,8.68c3.72,2.79,6.91,2.77,12.25,1.23"/>
	<path class="st0" d="M104.79,476.34c0,0,0.47,9.15,0.93,12.56c0.19,1.41,0.71,2.43,1.24,3.32c0.75,1.26,1.55,2.27,1.55,3.81
		c0,1.65-0.48,3.84,0.06,5.93c0.33,1.26,1.02,2.48,2.42,3.52c3.72,2.79,11.01,6.67,17.83,5.43c6.82-1.24,9.15-8.84,9.15-8.84"/>
	<path class="st0" d="M108.57,501.96c-1.64-1.2-1.77-2.37-1.77-2.37l0.16-7.38"/>
	<path class="st0" d="M147.41,506.41c0,0-4.19,4.65-6.98,7.44s-3.88,6.05-2.48,10.54c1.4,4.5,6.98,8.81,6.98,8.81
		s3.41-0.75,6.05-1.84c2.64-1.09,2.64-1.09,2.64-1.09"/>
	<line class="st0" x1="152.99" y1="533.85" x2="144.93" y2="533.2"/>
	<path class="st0" d="M169.42,514.63c0,0-4.34-0.15-10.08,7.75c-5.74,7.91-6.67,9.92-6.36,15.35c0.31,5.43,0.31,5.43,0.31,5.43
		s2.33,4.19,8.99,1.71c6.67-2.48,8.37-2.32,8.37-2.32s1.4-1.55,4.96,0.77s11.47,5.27,11.47,5.27s-0.58,2.64,8.01,2.79
		c8.58,0.16,15.87,0.93,20.52,0c4.65-0.93,10.85-1.55,14.88-1.86c4.03-0.31,12.71-2.64,15.97-4.03s8.34-4.6,8.34-4.6"/>
	<path class="st0" d="M154.39,544.34c0,0,0.77,2.06,2.01,2.84c1.24,0.78,8.68,3.57,15.19,2.79c6.51-0.78,14.73,0,14.73,0l0.78-1.4"
		/>
	<path class="st0" d="M175.62,543.3c0,0-0.88,1.48-6.05,3.92c-5.17,2.43-8.42,1.71-8.42,1.71"/>
	<path class="st0" d="M142.75,492.21"/>
</g>
<g>
	<path class="st1" d="M69.66,402.28c-0.89-9.25-3.4-24.35,1.36-50.06c4.77-25.71,19.3-46.72,19.3-46.72s13.82-22.87,43.13-41.7
		s77.44-18.11,86.97-18.11c9.53,0,32.17,5,54.8,18.82c22.64,13.82,35.98,30.98,48.85,50.04c12.87,19.06,17.62,45.99,17.51,56.99
		c-0.15,14.88-8.46,39.13-8.46,39.13"/>
	<path class="st1" d="M200.18,516.35c0,0-36.4,1.65-70.86-20.68c-34.46-22.34-47.77-49.19-47.77-49.19s-6.47-11.26-7.17-20.21"/>
	<path class="st1" d="M300.92,476.63c0,0-12.41,18.31-31.75,25"/>
	<path class="st1" d="M191.5,280.73c0,0-28.82,3-43.22,29.42c0,0-15.01,24.61,0,54.03c15.01,29.42,48.33,33.68,64.24,32.15
		s50.43-17.44,54.03-49.26s-13.21-48.33-32.72-59.73S191.5,280.73,191.5,280.73z"/>
	<path class="st1" d="M171.54,295.74c0,0-11.86,8.7-16.97,21.01s-4.2,24.57-3.3,31.64"/>
	<path class="st1" d="M238.03,295.74c0,0,14.46,9.43,21.73,26.33c7.27,16.9-1.32,39.41-4.62,44.21c-3.3,4.8-11.71,13.21-19.81,16.81
		"/>
	<path class="st1" d="M157.28,368.08c0,0,7.8,10.21,16.21,15.01"/>
	<path class="st1" d="M173.49,347.07c0,0,12.01-43.41,13.21-47.07s3.9-1.79,5.1-0.92c1.2,0.86,35.35,26.68,35.35,26.68
		s3.83,2.57,0,5.04c-3.83,2.47-31.74,10.57-31.74,10.57l-16.21,5.7C179.19,347.07,172.5,350.65,173.49,347.07z"/>
	<path class="st1" d="M176.01,348.66c0,0,30.13-8.39,36.64-10.5c6.51-2.11,14.5-4.76,14.5-4.76s3.4-2.79,1.7-5.22"/>
</g>
</svg>
